<?xml version="1.0" encoding="UTF-8"?>
<svg version="1.1" xmlns="http://www.w3.org/2000/svg" viewBox="88 73 228 58">
<path d="M0 0 C0.9215538 0.00222061 1.8431076 0.00444122 2.79258728 0.00672913 C3.83359085 0.00680466 4.87459442 0.00688019 5.94714355 0.00695801 C7.07941879 0.01211929 8.21169403 0.01728058 9.37828064 0.02259827 C10.53106003 0.02401321 11.68383942 0.02542816 12.87155151 0.02688599 C16.57043503 0.03250446 20.26925903 0.0450601 23.96812439 0.05775452 C26.46877456 0.06276714 28.96942567 0.06733045 31.47007751 0.07142639 C37.61528027 0.0824799 43.76044808 0.099236 49.90562439 0.12025452 C50.9743042 1.94610596 50.9743042 1.94610596 51.90562439 4.12025452 C50.80674744 6.90663147 50.80674744 6.90663147 48.91734314 10.10853577 C48.58348602 10.6845755 48.24962891 11.26061523 47.90565491 11.85411072 C46.8170862 13.72332981 45.70613175 15.57800079 44.59312439 17.43275452 C43.84351222 18.70396342 43.09505833 19.97585604 42.34776306 21.24842834 C40.87740452 23.74738176 39.39817704 26.24075698 37.91246033 28.73060608 C36.23869693 31.55767799 34.60695888 34.3994463 33.00718689 37.26869202 C32.24417329 38.61505028 31.48115328 39.96140492 30.71812439 41.30775452 C30.0851947 42.4356842 29.45226501 43.56361389 28.80015564 44.72572327 C26.90562439 47.12025452 26.90562439 47.12025452 24.16734314 47.98353577 C23.42097595 48.02865295 22.67460876 48.07377014 21.90562439 48.12025452 C20.36275013 45.92474144 18.8473817 43.71699563 17.34312439 41.49525452 C16.90548767 40.87779358 16.46785095 40.26033264 16.01695251 39.62416077 C13.8693759 36.41125088 12.87872568 34.82130219 13.03062439 30.86244202 C14.02152566 27.75702821 15.39749625 25.00536922 16.90562439 22.12025452 C16.90562439 21.46025452 16.90562439 20.80025452 16.90562439 20.12025452 C16.23015564 20.16666077 15.55468689 20.21306702 14.85874939 20.26087952 C13.52070251 20.31502014 13.52070251 20.31502014 12.15562439 20.37025452 C11.27390564 20.41666077 10.39218689 20.46306702 9.48374939 20.51087952 C6.05371034 19.99117663 5.07822281 18.77716133 2.90562439 16.12025452 C1.76606078 14.51284254 0.68192318 12.86474419 -0.34437561 11.18275452 C-0.86515686 10.34873108 -1.38593811 9.51470764 -1.92250061 8.65541077 C-3.20191594 5.88760894 -3.40868477 4.13238394 -3.09437561 1.12025452 C-2.09437561 0.12025452 -2.09437561 0.12025452 0 0 Z " fill="#FF0A36" transform="translate(97.09437561035156,76.87974548339844)"/>
<path d="M0 0 C11.55 0 23.1 0 35 0 C35.66 1.32 36.32 2.64 37 4 C36.04365808 6.36538322 35.07206922 8.28451754 33.765625 10.4453125 C33.41240173 11.05639862 33.05917847 11.66748474 32.69525146 12.29708862 C31.56166093 14.24882903 30.40593623 16.18642863 29.25 18.125 C28.48557505 19.43798561 27.72253687 20.75177965 26.9609375 22.06640625 C21.39461091 31.60538909 21.39461091 31.60538909 19 34 C14.32000851 27.22969767 10.1597408 20.23283687 6.125 13.0625 C5.53203125 12.02287109 4.9390625 10.98324219 4.328125 9.91210938 C3.76867187 8.92146484 3.20921875 7.93082031 2.6328125 6.91015625 C2.12637207 6.01433838 1.61993164 5.11852051 1.09814453 4.19555664 C0 2 0 2 0 0 Z " fill="#FF9C04" transform="translate(112,77)"/>
<path d="M0 0 C1.7015625 0.2475 1.7015625 0.2475 3.4375 0.5 C6.83278957 1.31993361 6.83278957 1.31993361 9 0 C14.00404498 -0.37766377 16.99885156 -0.11200434 21 3 C23.97183447 5.86569753 24.69252042 8.81639686 25.06640625 12.90625 C24.92743467 17.28794216 23.19906467 20.71528785 20.25 23.875 C16.1184666 25.9407667 12.47346999 26.47025638 8.0625 25.0625 C7.381875 24.711875 6.70125 24.36125 6 24 C6.020625 25.299375 6.04125 26.59875 6.0625 27.9375 C6.08399454 29.29165633 6.07148199 30.64756083 6 32 C5 33 5 33 2.5 33.125 C0 33 0 33 -1 32 C-1.1002093 29.72052208 -1.13081303 27.43792865 -1.1328125 25.15625 C-1.13376923 24.47195923 -1.13472595 23.78766846 -1.13571167 23.0826416 C-1.1363933 21.63338123 -1.13454023 20.18411782 -1.13037109 18.73486328 C-1.12502252 16.50937072 -1.1303166 14.28407999 -1.13671875 12.05859375 C-1.13605797 10.65364539 -1.1347768 9.24869715 -1.1328125 7.84375 C-1.13168457 6.55662109 -1.13055664 5.26949219 -1.12939453 3.94335938 C-1 1 -1 1 0 0 Z M6 9 C5.56484058 13.66731926 5.56484058 13.66731926 7.0625 18 C10.16186478 19.59967215 12.69958714 18.73342508 16 18 C17.89488952 16.10511048 17.18019112 13.42860854 17.23046875 10.91015625 C17.1702792 8.7587364 17.1702792 8.7587364 15 7 C9.97000426 6.41355715 9.97000426 6.41355715 6 9 Z " fill="#FF0F3A" transform="translate(237,90)"/>
<path d="M0 0 C2.48516127 0.57987096 4.4037044 -0.04222724 6.875 -0.5625 C7.535 -0.2325 8.195 0.0975 8.875 0.4375 C8.90387236 4.24998426 8.92175492 8.0624407 8.9375 11.875 C8.94587891 12.96361328 8.95425781 14.05222656 8.96289062 15.17382812 C8.96772461 16.72553711 8.96772461 16.72553711 8.97265625 18.30859375 C8.98051147 19.74609985 8.98051147 19.74609985 8.98852539 21.21264648 C8.875 23.4375 8.875 23.4375 7.875 24.4375 C5.87547242 24.48096799 3.87460012 24.477492 1.875 24.4375 C-1.03893943 24.29139073 -1.03893943 24.29139073 -3.375 25.125 C-7.36374581 25.57826657 -9.63881129 24.33905748 -13.125 22.4375 C-15.81283638 20.16317691 -16.9376612 18.59243402 -17.50390625 15.1015625 C-17.76859044 9.4151216 -17.05767107 5.80713452 -13.125 1.4375 C-9.33034371 -1.44120477 -4.47632641 -1.18490993 0 0 Z M-10.125 8.4375 C-10.62507794 11.89536015 -10.62507794 11.89536015 -10.125 15.4375 C-8.625 17.60416667 -8.625 17.60416667 -6.125 18.4375 C-2.99819901 18.44424926 -2.99819901 18.44424926 -0.125 17.4375 C2.20796251 14.61032787 2.20796251 14.61032787 1.625 11.375 C1.1156756 8.338041 1.1156756 8.338041 -1.125 6.4375 C-6.15499574 5.85105715 -6.15499574 5.85105715 -10.125 8.4375 Z " fill="#FF163E" transform="translate(225.125,90.5625)"/>
<path d="M0 0 C0.99 0.33 1.98 0.66 3 1 C3.33 0.67 3.66 0.34 4 0 C6.5 -0.125 6.5 -0.125 9 0 C10 1 10 1 10.11352539 3.31665039 C10.10828857 4.31688232 10.10305176 5.31711426 10.09765625 6.34765625 C10.09443359 7.42724609 10.09121094 8.50683594 10.08789062 9.61914062 C10.07951172 10.75544922 10.07113281 11.89175781 10.0625 13.0625 C10.05798828 14.20267578 10.05347656 15.34285156 10.04882812 16.51757812 C10.03699747 19.34510351 10.0205141 22.1725264 10 25 C9.38656738 24.99202393 8.77313477 24.98404785 8.14111328 24.97583008 C7.33399902 24.96962646 6.52688477 24.96342285 5.6953125 24.95703125 C4.89625488 24.94905518 4.09719727 24.9410791 3.27392578 24.93286133 C0.83724119 24.93427328 0.83724119 24.93427328 -2.125 25.6875 C-6.15465239 26.12550569 -8.48564892 24.92294682 -12 23 C-14.9867346 19.81414976 -15.90126808 17.04655839 -16.3125 12.6875 C-15.87461641 7.52047369 -13.71172869 4.83399503 -10.25 1.125 C-6.74675271 -0.62662364 -3.90044277 -0.24764716 0 0 Z M-8.0625 9.125 C-9.25669488 12.78719764 -8.52888746 14.53988627 -7 18 C-2.42760994 19.13266151 -2.42760994 19.13266151 1.9375 18 C3.56192132 14.94226576 3.30839752 12.39237275 3 9 C1.05925114 6.65113568 1.05925114 6.65113568 -2.4375 6.5625 C-6.0732374 6.63089589 -6.0732374 6.63089589 -8.0625 9.125 Z " fill="#FF153E" transform="translate(279,90)"/>
<path d="M0 0 C2.64 0 5.28 0 8 0 C9.17441535 2.10016623 10.33964012 4.20458755 11.5 6.3125 C11.83386719 6.90740234 12.16773438 7.50230469 12.51171875 8.11523438 C14.06825114 10.95828844 15 12.70660988 15 16 C15.66 16 16.32 16 17 16 C17.10183594 15.29488281 17.20367187 14.58976562 17.30859375 13.86328125 C18.09914812 10.58940355 19.40523734 8.11415533 21.0625 5.1875 C21.88427734 3.72376953 21.88427734 3.72376953 22.72265625 2.23046875 C23.14417969 1.49441406 23.56570312 0.75835937 24 0 C26.64 0 29.28 0 32 0 C30.66017669 4.3134396 28.99589931 8.24341509 26.9609375 12.2734375 C26.38085938 13.42714844 25.80078125 14.58085938 25.203125 15.76953125 C24.59383809 16.97139883 23.98446198 18.17322119 23.375 19.375 C22.75744122 20.60007332 22.14025018 21.8253321 21.5234375 23.05078125 C20.01922833 26.03569632 18.51130878 29.01867503 17 32 C16.34 32 15.68 32 15 32 C12.85867666 27.76671007 10.7225723 23.5308439 8.59130859 19.29248047 C7.86520743 17.85034935 7.13767335 16.40893878 6.40869141 14.96826172 C5.36245182 12.89998128 4.32135554 10.829183 3.28125 8.7578125 C2.95314331 8.11192169 2.62503662 7.46603088 2.2869873 6.80056763 C0 2.22774341 0 2.22774341 0 0 Z " fill="#FF143D" transform="translate(153,83)"/>
<path d="M0 0 C2.31 0 4.62 0 7 0 C8.98 3.96 10.96 7.92 13 12 C13.639375 10.205625 14.27875 8.41125 14.9375 6.5625 C16.875 1.125 16.875 1.125 18 0 C20.67058851 -0.14115161 23.32432238 -0.04247107 26 0 C23.66737643 7.36985054 20.8202139 14.44438679 17.8125 21.5625 C17.34908203 22.66658203 16.88566406 23.77066406 16.40820312 24.90820312 C15.27506147 27.60671574 14.1389372 30.30392958 13 33 C10.69 33 8.38 33 6 33 C6 29 6 29 7.2421875 25.859375 C8.31294992 20.40621383 6.46051414 17.14021893 4.125 12.25 C3.3524199 10.56970202 2.58399558 8.88748525 1.8203125 7.203125 C1.47242676 6.46739258 1.12454102 5.73166016 0.76611328 4.97363281 C0 3 0 3 0 0 Z " fill="#FF173E" transform="translate(183,91)"/>
<path d="M0 0 C2.7283768 0 5.31654063 -0.53331141 8 -1 C8 1.31 8 3.62 8 6 C7.02675781 6.34804687 6.05351562 6.69609375 5.05078125 7.0546875 C1.65718674 8.71794538 1.65718674 8.71794538 1.23046875 12.3203125 C1.20919922 14.20363281 1.20919922 14.20363281 1.1875 16.125 C1.04075235 22.95924765 1.04075235 22.95924765 0 24 C-2.31 24 -4.62 24 -7 24 C-7 16.08 -7 8.16 -7 0 C-4.32147752 -1.33926124 -2.86420842 -0.64444689 0 0 Z " fill="#FF0E38" transform="translate(298,91)"/>
<path d="M0 0 C5.28 0 10.56 0 16 0 C16.66 1.32 17.32 2.64 18 4 C16.82035284 6.62012083 15.63889271 8.83953006 14.125 11.25 C13.73441406 11.8996875 13.34382812 12.549375 12.94140625 13.21875 C11.97522285 14.82120052 10.98943828 16.41180293 10 18 C7.16801866 14.54933966 5.25489851 10.73939127 3.3125 6.75 C2.219375 4.5225 1.12625 2.295 0 0 Z " fill="#FFC209" transform="translate(131,77)"/>
<path d="M0 0 C2.64 0 5.28 0 8 0 C7.67 0.99 7.34 1.98 7 3 C6.01 3 5.02 3 4 3 C4.66 4.65 5.32 6.3 6 8 C5.34 8.66 4.68 9.32 4 10 C3.32845067 8.71086513 2.66291141 7.41859796 2 6.125 C1.62875 5.40570313 1.2575 4.68640625 0.875 3.9453125 C0 2 0 2 0 0 Z " fill="#FF2B4B" transform="translate(153,83)"/>
<path d="M0 0 C0.66 0 1.32 0 2 0 C0.125 5.75 0.125 5.75 -1 8 C-1.66 8 -2.32 8 -3 8 C-3 6.68 -3 5.36 -3 4 C-2.34 4 -1.68 4 -1 4 C-0.67 2.68 -0.34 1.36 0 0 Z " fill="#FF2144" transform="translate(171,107)"/>
<path d="M0 0 C2.64 0 5.28 0 8 0 C8 0.66 8 1.32 8 2 C5.69 2.33 3.38 2.66 1 3 C0.67 2.01 0.34 1.02 0 0 Z " fill="#FF2B47" transform="translate(177,83)"/>
</svg>
